# AST/ASF file generated using VICON BodyLanguage
# -----------------------------------------------
:version 1.10
:name VICON
:units
  mass 1.0
  length 0.45
  angle deg
:documentation
   .ast/.asf automatically generated from VICON data using
   VICON BodyBuilder and BodyLanguage model FoxedUp or BRILLIANT.MOD
:root
   order TX TY TZ RX RY RZ
   axis XYZ
   position 0 0 0  
   orientation 0 0 0 
:bonedata
  begin
     id 1 
     name lhipjoint
     direction 0.54267 -0.795011 0.271047 
     length 2.39899 
     axis 0 0 0  XYZ
  end
  begin
     id 2 
     name lfemur
     direction 0.34202 -0.939693 0  
     length 7.49701  
     axis 0 0 20  XYZ
    dof rx ry rz
    limits (-160.0 20.0)
           (-70.0 70.0)
           (-60.0 70.0)
  end
  begin
     id 3 
     name ltibia
     direction 0.34202 -0.939693 0   
     length 8.1668   
     axis 0 0 20   XYZ
    dof rx
    limits (-10.0 170.0)
  end
  begin
     id 4 
     name lfoot
     direction 0.0736283 -0.202292 0.976554   
     length 2.13544   
     axis -90 7.62852e-016 20   XYZ
    dof rx rz
    limits (-45.0 90.0)
           (-70.0 20.0)
  end
  begin
     id 5 
     name ltoes
     direction 1.53557e-011 -4.22024e-011 1   
     length 1.07411   
     axis -90 7.62852e-016 20   XYZ
    dof rx
    limits (-90.0 20.0)
  end
  begin
     id 6 
     name rhipjoint
     direction -0.538061 -0.797813 0.272002   
     length 2.39057  
     axis 0 0 0  XYZ 
  end
  begin
     id 7 
     name rfemur
     direction -0.34202 -0.939693 0   
     length 7.50152   
     axis 0 0 -20   XYZ
    dof rx ry rz
    limits (-160.0 20.0)
           (-70.0 70.0)
           (-70.0 60.0)
  end
  begin
     id 8 
     name rtibia
     direction -0.34202 -0.939693 0   
     length 8.05793   
     axis 0 0 -20   XYZ
    dof rx
    limits (-10.0 170.0)
 end
 begin
     id 9 
     name rfoot
     direction -0.0765195 -0.210236 0.974652   
     length 2.28698  
     axis -90 -7.62852e-016 -20   XYZ
    dof rx rz
    limits (-45.0 90.0)
           (-20.0 70.0)
  end
  begin
     id 10 
     name rtoes
     direction -1.53542e-011 -4.21847e-011 1   
     length 1.14762   
     axis -90 -7.62852e-016 -20   XYZ
    dof rx
    limits (-90.0 20.0)
  end
  begin
     id 11 
     name lowerback
     direction -0.0217239 0.996592 -0.0795765   
     length 2.08176   
     axis 0 0 0   XYZ
    dof rx ry rz
    limits (-20.0 45.0)
           (-30.0 30.0)
           (-30.0 30.0)
  end
  begin
     id 12 
     name upperback
     direction -0.00563773 0.999651 -0.0258155   
     length 2.08898   
     axis 0 0 0   XYZ
    dof rx ry rz
    limits (-20.0 45.0)
           (-30.0 30.0)
           (-30.0 30.0)
  end
  begin
     id 13 
     name thorax
     direction 0.0032706 0.999923 0.0119599   
     length 2.0968   
     axis 0 0 0   XYZ
    dof rx ry rz
    limits (-20.0 45.0)
           (-30.0 30.0)
           (-30.0 30.0)
  end
  begin
     id 14 
     name lowerneck
     direction -0.0285886 0.99568 0.0883427   
     length 1.81272   
     axis 0 0 0   XYZ
    dof rx ry rz
    limits (-20.0 45.0)
           (-30.0 30.0)
           (-30.0 30.0)
  end
  begin
     id 15 
     name upperneck
     direction 0.0807535 0.97985 -0.18268   
     length 1.82518   
     axis 0 0 0   XYZ
    dof rx ry rz
    limits (-20.0 45.0)
           (-30.0 30.0)
           (-30.0 30.0)
  end
  begin
     id 16
     name head
     direction 0.0236605 0.997053 -0.0729767  
     length 1.84443  
     axis 0 0 0   XYZ
    dof rx ry rz
    limits (-20.0 45.0)
           (-30.0 30.0)
           (-30.0 30.0)
  end
  begin
     id 17 
     name lclavicle
     direction 0.918986 0.39378 -0.0200683  
     length 3.27822  
     axis 0 0 0   XYZ
    dof ry rz
    limits (-20.0 10.0)
           (0.0 20.0)
  end
  begin
     id 18 
     name lhumerus
     direction 1 -4.4897e-011 2.09544e-027   
     length 5.5568   
     axis 180 -30 -90   XYZ
    dof rx ry rz
    limits (-60.0 90.0)
           (-90.0 90.0)
           (-90.0 90.0)
  end
  begin
     id 19
     name lradius
     direction 1 -4.48957e-011 -1.27696e-026   
     length 3.63979   
     axis 180 -30 -90   XYZ
    dof rx
    limits (-10.0 170.0)
  end
  begin
     id 20
     name lwrist
     direction 1 -4.49001e-011 -1.49001e-026   
     length 1.8199   
     axis 9.0955e-015 90 90   XYZ
    dof ry
    limits (-180.0 0.0)
 end
  begin
     id 21 
     name lhand
     direction 1 -4.48709e-011 -2.9758e-026   
     length 0.569419   
     axis 1.90115e-014 90 90   XYZ
    dof rx rz
    limits (-90.0 90.0)
           (-45.0 45.0)
  end
  begin
     id 22 
     name lfingers
     direction 1 -4.49175e-011 -5.96505e-026   
     length 0.45908   
     axis 3.80223e-014 90 90   XYZ
    dof rx
    limits (0.0 90.0)
  end
  begin
     id 23
     name lthumb
     direction 0.707107 -6.34864e-011 0.707107   
     length 0.65915   
     axis -90 45 -3.84942e-014   XYZ
    dof rx rz
    limits (-45.0 45.0)
           (-45.0 45.0)
  end
  begin
     id 24 
     name rclavicle
     direction -0.911913 0.396426 -0.106115   
     length 3.46301  
     axis 0 0 0   XYZ 
    dof ry rz
    limits (-10.0 20.0)
           (-20.0 0.0)
  end
  begin
     id 25 
     name rhumerus
     direction -1 -4.48965e-011 7.78516e-028  
     length 5.34339   
     axis 180 30 90   XYZ
    dof rx ry rz
    limits (-90.0 60.0)
           (-90.0 90.0)
           (-90.0 90.0)
  end
  begin
     id 26 
     name rradius
     direction -1 -4.48948e-011 -5.79823e-027   
     length 3.65101   
     axis 180 30 90   XYZ
    dof rx
    limits (-10.0 170.0)
  end
  begin
     id 27 
     name rwrist
     direction -1 -4.48995e-011 -1.48996e-026   
     length 1.8255   
     axis 9.0955e-015 -90 -90   XYZ
    dof ry
    limits (-180.0 0.0)
  end
  begin
     id 28
     name rhand
     direction -1 -4.48957e-011 -2.97937e-026   
     length 0.694249   
     axis 1.90115e-014 -90 -90   XYZ
    dof rx rz
    limits (-90.0 90.0)
           (-45.0 45.0)
  end
  begin
     id 29
     name rfingers
     direction -1 -4.4898e-011 -5.95943e-026   
     length 0.559721   
     axis 3.80223e-014 -90 -90   XYZ
    dof rx
    limits (0.0 90.0)
  end
  begin
     id 30
     name rthumb
     direction -0.707107 -6.34969e-011 0.707107   
     length 0.803651   
     axis -90 -45 3.84942e-014   XYZ
    dof rx rz
    limits (-45.0 45.0)
           (-45.0 45.0)
  end
:hierarchy
  begin
    root lhipjoint rhipjoint lowerback
    lhipjoint lfemur
    lfemur ltibia
    ltibia lfoot
    lfoot ltoes
    rhipjoint rfemur
    rfemur rtibia
    rtibia rfoot
    rfoot rtoes
    lowerback upperback
    upperback thorax
    thorax lowerneck lclavicle rclavicle
    lowerneck upperneck
    upperneck head
    lclavicle lhumerus
    lhumerus lradius
    lradius lwrist
    lwrist lhand lthumb
    lhand lfingers
    rclavicle rhumerus
    rhumerus rradius
    rradius rwrist
    rwrist rhand rthumb
    rhand rfingers
  end

#!OML:ASF H:\Terrain\Walking\May29\JustinRory\rory.ASF
:FULLY-SPECIFIED
:DEGREES
196
root 11.9994 18.4586 -13.3146 -2.72474 -3.76609 -0.38129
lowerback -1.44007 0.264402 -8.24969
upperback -0.0691128 0.512591 -4.12916
thorax 0.704244 0.232655 0.366792
lowerneck -2.51126 -4.2839 -2.49095
upperneck 24.7201 -8.89817 13.1083
head 8.80596 -3.32084 4.14386
rclavicle -1.25234e-014 2.54444e-014
rhumerus 0.97253 29.2978 -63.4743
rradius 98.848
rwrist -6.60456
rhand -20.1494 49.8555
rfingers 7.12502
rthumb 6.19557 19.9661
lclavicle -1.25234e-014 2.54444e-014
lhumerus -2.86837 -33.5147 86.6897
lradius 100.39
lwrist 59.0391
lhand -18.9386 27.8237
lfingers 7.12502
lthumb 7.36438 57.6756
rfemur -6.51097 3.37092 9.96079
rtibia 30.6114
rfoot -1.3863 -6.08207
rtoes -15.7164
lfemur 0.988591 -5.04393 -21.3116
ltibia 15.898
lfoot -13.6972 7.54616
ltoes -4.34726
197
root 12.0188 18.4552 -13.3092 -2.91917 -3.85866 -0.518202
lowerback -1.15652 0.382654 -8.04168
upperback -0.116521 0.629819 -4.29266
thorax 0.491688 0.298928 0.0831871
lowerneck -2.00937 -4.32756 -2.34945
upperneck 24.5596 -9.07363 13.643
head 8.6944 -3.37413 4.2993
rclavicle -1.92821e-014 -2.22639e-014
rhumerus 0.382402 28.7013 -64.553
rradius 99.0622
rwrist -7.23901
rhand -21.3051 49.6147
rfingers 7.12502
rthumb 5.07972 19.6956
lclavicle -1.92821e-014 -2.22639e-014
lhumerus -3.30235 -33.9176 87.2891
lradius 100.505
lwrist 56.4757
lhand -20.8568 27.2973
lfingers 7.12502
lthumb 5.51262 57.2056
rfemur -6.61419 3.61042 10.0195
rtibia 31.0088
rfoot -1.01852 -6.00115
rtoes -14.94
lfemur 1.12462 -5.17888 -21.287
ltibia 16.1482
lfoot -13.9463 7.69408
ltoes -4.04925
198
root 12.0326 18.4518 -13.3084 -3.02192 -3.90921 -0.838189
lowerback -0.841301 0.570287 -7.80373
upperback -0.0278304 0.847069 -4.26359
thorax 0.396041 0.408696 -0.0179047
lowerneck -2.21138 -4.49021 -2.60512
upperneck 24.4212 -9.43222 14.3423
head 8.76703 -3.50273 4.55012
rclavicle 4.67144e-015 2.38542e-014
rhumerus 0.13433 27.751 -65.2735
rradius 99.1963
rwrist -8.01574
rhand -22.6937 49.0461
rfingers 7.12502
rthumb 3.73891 19.0992
lclavicle 4.67144e-015 2.38542e-014
lhumerus -3.25848 -34.2897 88.0191
lradius 100.648
lwrist 53.7005
lhand -23.0848 26.5007
lfingers 7.12502
lthumb 3.3612 56.454
rfemur -6.8316 3.78743 10.3068
rtibia 31.5121
rfoot -0.77844 -5.98267
rtoes -13.4021
lfemur 1.22673 -5.06157 -20.9933
ltibia 16.2509
lfoot -13.9665 7.61668
ltoes -3.98299
199
root 12.0465 18.4535 -13.3108 -3.01334 -3.78388 -0.918463
lowerback -0.669324 0.719149 -7.95688
upperback 0.146101 1.04005 -4.10526
thorax 0.462916 0.499106 0.230483
lowerneck -2.85582 -4.70303 -3.13767
upperneck 24.36 -9.8036 14.8501
head 8.95767 -3.6522 4.77179
rclavicle 1.54058e-014 -1.27222e-014
rhumerus -0.271302 26.4449 -65.923
rradius 99.4219
rwrist -9.0711
rhand -23.7498 48.3444
rfingers 7.12502
rthumb 2.71904 18.382
lclavicle 1.54058e-014 -1.27222e-014
lhumerus -3.08159 -34.3801 89.1932
lradius 100.681
lwrist 50.2895
lhand -24.3836 25.4724
lfingers 7.12502
lthumb 2.10688 55.4418
rfemur -7.13436 3.67684 10.3092
rtibia 32.0896
rfoot -0.684638 -5.88992
rtoes -13.258
lfemur 1.19312 -4.92126 -20.9225
ltibia 16.2351
lfoot -13.8189 7.42325
ltoes -4.30139
200
root 12.0586 18.4556 -13.3177 -2.99772 -3.5743 -0.721531
lowerback -0.554411 0.685822 -8.45356
upperback 0.111307 0.982684 -4.06784
thorax 0.357092 0.473041 0.540068
lowerneck -2.57482 -4.70506 -3.3373
upperneck 24.2581 -9.82531 15.1041
head 8.89283 -3.67618 4.89973
rclavicle 1.49089e-015 4.92986e-014
rhumerus -0.657104 25.4685 -67.0561
rradius 99.3743
rwrist -10.4547
rhand -24.7788 47.6058
rfingers 7.12502
rthumb 1.72518 17.633
lclavicle 1.49089e-015 4.92986e-014
lhumerus -3.77272 -33.9404 90.6375
lradius 100.768
lwrist 46.7901
lhand -25.6776 23.3702
lfingers 7.12502
lthumb 0.857082 53.3483
rfemur -7.50287 3.44643 9.97934
rtibia 32.6609
rfoot -0.574775 -5.69519
rtoes -14.1209
lfemur 1.11516 -4.85573 -21.1393
ltibia 16.2033
lfoot -13.7144 7.16328
ltoes -4.44836
201
root 12.0707 18.4542 -13.3239 -3.10508 -3.50756 -0.643152
lowerback -0.26193 0.663578 -8.72236
upperback -0.186952 0.892654 -4.12331
thorax -0.114028 0.449624 0.623905
lowerneck -1.27753 -4.65803 -3.22708
upperneck 24.1065 -9.75328 15.222
head 8.58718 -3.69334 4.95729
rclavicle 1.85864e-014 -5.88403e-014
rhumerus -1.51792 24.692 -68.6942
rradius 99.4491
rwrist -12.8363
rhand -24.6173 49.4941
rfingers 7.12502
rthumb 1.88119 19.5227
lclavicle 1.85864e-014 -5.88403e-014
lhumerus -5.17948 -33.296 92.1789
lradius 100.804
lwrist 43.0487
lhand -27.505 20.9552
lfingers 7.12502
lthumb -0.907819 50.933
rfemur -7.76491 3.37773 9.78672
rtibia 33.1592
rfoot -0.211876 -5.43087
rtoes -15.3433
lfemur 1.21058 -4.85696 -21.2707
ltibia 16.2019
lfoot -13.7179 7.04459
ltoes -4.05528
202
root 12.0875 18.4568 -13.3263 -3.25249 -3.5582 -0.860208
lowerback -0.286817 0.602368 -8.64269
upperback 0.190556 0.846755 -4.1487
thorax 0.297092 0.405143 0.557102
lowerneck -1.97618 -4.70182 -2.84588
upperneck 24.2161 -9.89439 15.248
head 8.7606 -3.68679 4.87191
rclavicle -3.8763e-015 1.74931e-014
rhumerus -1.34994 23.7317 -70.1202
rradius 99.918
rwrist -14.8407
rhand -25.1386 48.4999
rfingers 7.12502
rthumb 1.37771 18.5246
lclavicle -3.8763e-015 1.74931e-014
lhumerus -4.97442 -32.5575 92.6644
lradius 100.737
lwrist 39.2258
lhand -29.4258 19.8738
lfingers 7.12502
lthumb -2.76297 49.8356
rfemur -7.91934 3.48649 9.95061
rtibia 33.5834
rfoot 0.326372 -5.24367
rtoes -16.1969
lfemur 1.41739 -4.84445 -21.1034
ltibia 16.1316
lfoot -13.672 7.06403
ltoes -3.24345
203
root 12.1032 18.4637 -13.3278 -3.37919 -3.55769 -1.2382
lowerback -0.58947 0.578745 -8.47226
upperback 0.535237 0.88043 -4.04216
thorax 0.82364 0.398101 0.579244
lowerneck -1.77797 -4.7366 -2.79664
upperneck 23.8719 -9.95266 15.5103
head 8.62238 -3.7149 4.9459
rclavicle -4.96962e-016 0
rhumerus -1.6684 22.7429 -71.5288
rradius 100.447
rwrist -16.8946
rhand -25.7034 47.6357
rfingers 7.12502
rthumb 0.832244 17.6576
lclavicle -4.96962e-016 0
lhumerus -5.12809 -32.0147 93.5805
lradius 100.883
lwrist 36.5922
lhand -30.8639 19.3503
lfingers 7.12502
lthumb -4.1517 49.2895
rfemur -8.0266 3.49496 10.3083
rtibia 33.9588
rfoot 0.700551 -5.11599
rtoes -15.9902
lfemur 1.61438 -4.78293 -20.7285
ltibia 15.9908
lfoot -13.5038 7.06061
ltoes -3.23598
204
root 12.1128 18.4695 -13.328 -3.42013 -3.60937 -1.37539
lowerback -0.688435 0.675139 -8.58652
upperback 0.465097 1.0151 -3.97451
thorax 0.793756 0.466621 0.714118
lowerneck -0.780453 -4.81877 -2.93408
upperneck 23.5471 -10.0509 15.8109
head 8.35537 -3.81454 5.08496
rclavicle -4.67144e-015 9.54166e-015
rhumerus -2.77419 21.7939 -73.1489
rradius 101.016
rwrist -19.1947
rhand -25.8967 47.5639
rfingers 7.12502
rthumb 0.645543 17.5851
lclavicle -4.67144e-015 9.54166e-015
lhumerus -6.0121 -31.6378 95.0171
lradius 101.188
lwrist 35.9312
lhand -30.9613 19.095
lfingers 7.12502
lthumb -4.24573 49.0324
rfemur -8.29895 3.57945 10.3843
rtibia 34.3549
rfoot 0.857237 -4.9703
rtoes -14.3196
lfemur 1.70609 -4.71929 -20.6158
ltibia 15.9096
lfoot -13.4394 7.1236
ltoes -4.24947
205
root 12.1206 18.4701 -13.3332 -3.37681 -3.75136 -1.18348
lowerback -0.735684 0.686429 -9.08783
upperback 0.854187 1.07509 -4.01936
thorax 1.21359 0.469419 0.946663
lowerneck -2.11796 -4.90033 -2.71595
upperneck 23.7234 -10.2777 15.9148
head 8.6933 -3.81898 5.03236
rclavicle 6.95746e-015 -1.11319e-014
rhumerus -2.20494 20.9126 -74.4695
rradius 101.383
rwrist -20.9204
rhand -26.8814 47.2167
rfingers 7.12502
rthumb -0.30553 17.2372
lclavicle 6.95746e-015 -1.11319e-014
lhumerus -5.47515 -31.194 95.4946
lradius 101.494
lwrist 36.7721
lhand -30.1533 20.0466
lfingers 7.12502
lthumb -3.46548 49.9982
rfemur -8.80957 3.8171 10.0805
rtibia 34.8364
rfoot 0.903649 -4.79886
rtoes -11.2543
lfemur 1.69714 -4.644 -20.8593
ltibia 15.8087
lfoot -13.4522 7.16767
ltoes -4.21754
206
root 12.1272 18.4655 -13.3451 -3.29515 -3.74872 -0.94688
lowerback -0.613997 0.610495 -9.59366
upperback 0.949557 0.973336 -4.0765
thorax 1.24732 0.410563 1.16235
lowerneck -2.52741 -4.85123 -2.60256
upperneck 23.6354 -10.258 16.0799
head 8.74369 -3.77059 5.05978
rclavicle -2.33572e-015 2.22639e-014
rhumerus -2.14587 20.5329 -75.8983
rradius 101.569
rwrist -21.6166
rhand -29.3172 51.3732
rfingers 7.12502
rthumb -2.6581 21.41
lclavicle -2.33572e-015 2.22639e-014
lhumerus -5.64316 -30.5926 96.3529
lradius 101.865
lwrist 38.2066
lhand -29.5938 21.2472
lfingers 7.12502
lthumb -2.92513 51.2069
rfemur -9.30211 3.75354 9.74969
rtibia 35.3618
rfoot 1.09915 -4.52576
rtoes -10.4314
lfemur 1.61707 -4.61141 -21.1188
ltibia 15.6425
lfoot -13.3357 7.1125
ltoes -3.5868
207
root 12.1335 18.4663 -13.3499 -3.24966 -3.72346 -0.841064
lowerback -0.298193 0.632492 -9.79921
upperback 0.786844 0.947089 -4.16255
thorax 0.900706 0.413284 1.1809
lowerneck -2.51914 -4.88324 -2.69823
upperneck 23.7271 -10.3604 16.2845
head 8.80256 -3.80669 5.14354
rclavicle -2.18663e-015 7.31528e-014
rhumerus -3.19873 20.1629 -77.5295
rradius 102.058
rwrist -21.2366
rhand -31.0359 52.1448
rfingers 7.12502
rthumb -4.31783 22.2088
lclavicle -2.18663e-015 7.31528e-014
lhumerus -6.37843 -30.1753 97.4949
lradius 102.278
lwrist 39.716
lhand -30.0641 20.8195
lfingers 7.12502
lthumb -3.37938 50.7724
rfemur -9.66418 3.58922 9.57656
rtibia 35.8332
rfoot 1.49024 -4.16067
rtoes -12.679
lfemur 1.51628 -4.61047 -21.252
ltibia 15.6809
lfoot -13.2634 7.18962
ltoes -3.79352
208
root 12.144 18.4718 -13.3493 -3.26214 -3.80122 -0.917326
lowerback -0.0809496 0.849422 -9.70016
upperback 0.680193 1.19462 -4.19864
thorax 0.646555 0.549334 1.08648
lowerneck -2.34692 -5.06151 -3.01232
upperneck 23.7091 -10.6682 16.6743
head 8.83819 -3.95613 5.31385
rclavicle -1.07344e-014 -3.18055e-015
rhumerus -4.54206 19.2222 -78.9524
rradius 102.795
rwrist -20.4883
rhand -31.63 51.3299
rfingers 7.12502
rthumb -4.89146 21.4064
lclavicle -1.07344e-014 -3.18055e-015
lhumerus -7.25319 -30.4473 98.8207
lradius 102.745
lwrist 40.8007
lhand -31.1212 20.3088
lfingers 7.12502
lthumb -4.40021 50.2431
rfemur -9.98171 3.61555 9.57637
rtibia 36.2285
rfoot 1.76434 -3.87526
rtoes -12.9865
lfemur 1.44575 -4.58885 -21.2127
ltibia 15.8768
lfoot -13.3432 7.30822
ltoes -3.62836
209
root 12.152 18.47 -13.3573 -3.22927 -3.85933 -1.23353
lowerback -0.15507 0.962215 -9.54107
upperback 0.725675 1.35712 -4.08289
thorax 0.721465 0.626845 1.1212
lowerneck -1.86915 -5.15719 -3.19866
upperneck 23.3523 -10.783 16.9779
head 8.66355 -4.04497 5.44627
rclavicle 6.5102e-015 6.83819e-014
rhumerus -5.34327 18.5468 -79.9981
rradius 103.401
rwrist -19.6886
rhand -30.9101 49.547
rfingers 7.12502
rthumb -4.19628 19.6086
lclavicle 6.5102e-015 6.83819e-014
lhumerus -7.93183 -30.5829 99.9228
lradius 103.245
lwrist 41.9049
lhand -31.5623 20.4567
lfingers 7.12502
lthumb -4.82606 50.3818
rfemur -10.2722 3.62315 9.89943
rtibia 36.5422
rfoot 1.91319 -3.74516
rtoes -12.6024
lfemur 1.36296 -4.45266 -20.8512
ltibia 15.941
lfoot -13.3455 7.18911
ltoes -3.406
